# xmcd
#
# Track frame offsets:
# 150
# 20777
# 46129
# 59931
# 86783
# 117385
# 157662
# 176714
# 198991
# 220443
# 248045
# 268372
# 293349
# 311501
# 324628
#
# Disc length: 4533 seconds
#
# Revision: 0
# Processed by: cddbd v1.5PL3 Copyright (c) Steve Scherf et al.
# Submitted via: Audion 3.0.2 (http://www.panic.com/audion/)
#
DISCID=e211b30f
DTITLE=hgjghj - ghjghjj
DYEAR=1900
DGENRE=
TTITLE0=hjghjghj
TTITLE1=ghjgh
TTITLE2=jghjgh
TTITLE3=jghj
TTITLE4=ghjghj
TTITLE5=ghjghj
TTITLE6=ghjghjghj
TTITLE7=ghjgh
TTITLE8=jghj
TTITLE9=ghjghj
TTITLE10=ghjg
TTITLE11=hjghj
TTITLE12=ghjghjgh
TTITLE13=jghjghj
TTITLE14=hgjghj
EXTD=
EXTT0=
EXTT1=
EXTT2=
EXTT3=
EXTT4=
EXTT5=
EXTT6=
EXTT7=
EXTT8=
EXTT9=
EXTT10=
EXTT11=
EXTT12=
EXTT13=
EXTT14=
PLAYORDER=
